# xmcd
#
# Track frame offsets: 
#        150
#        12015
#        38032
#        60802
#        77550
#        97022
#        122737
#        140900
#        157250
#        182847
#        204947
#        220050
#
# Disc length: 3109 seconds
#
# Revision: 1
# Processed by: cddbd v1.5.2PL0 Copyright (c) Steve Scherf et al.
# Submitted via: ExactAudioCopy v0.99pb3
#
DISCID=9e0c230c
DTITLE=Barry Withe - America
DYEAR=2004
DGENRE=Pop
TTITLE0=Love ain't easy
TTITLE1=Don't forget... remember
TTITLE2=America
TTITLE3=Relax to the max
TTITLE4=It ain't love babe
TTITLE5=Let me in and let's begin with love
TTITLE6=Your love, your love
TTITLE7=Life
TTITLE8=Lady sweet lady
TTITLE9=Love makin' music
TTITLE10=I've got the whole world to hold me up
TTITLE11=Your heart and soul
EXTD=
EXTT0=
EXTT1=
EXTT2=
EXTT3=
EXTT4=
EXTT5=
EXTT6=
EXTT7=
EXTT8=
EXTT9=
EXTT10=
EXTT11=
PLAYORDER=
